<?xml version="1.0" encoding="UTF-8" standalone="no"?>
<!-- Created with Inkscape (http://www.inkscape.org/) -->

<svg
   xmlns:dc="http://purl.org/dc/elements/1.1/"
   xmlns:cc="http://creativecommons.org/ns#"
   xmlns:rdf="http://www.w3.org/1999/02/22-rdf-syntax-ns#"
   xmlns:svg="http://www.w3.org/2000/svg"
   xmlns="http://www.w3.org/2000/svg"
   xmlns:sodipodi="http://sodipodi.sourceforge.net/DTD/sodipodi-0.dtd"
   xmlns:inkscape="http://www.inkscape.org/namespaces/inkscape"
   version="1.1"
   id="svg10"
   width="645.07935"
   height="642.53967"
   viewBox="0 0 645.07935 642.53967"
   sodipodi:docname="koliada.svg"
   inkscape:version="0.92.0 r15299">
  <metadata
     id="metadata16">
    <rdf:RDF>
      <cc:Work
         rdf:about="">
        <dc:format>image/svg+xml</dc:format>
        <dc:type
           rdf:resource="http://purl.org/dc/dcmitype/StillImage" />
        <dc:title></dc:title>
      </cc:Work>
    </rdf:RDF>
  </metadata>
  <defs
     id="defs14" />
  <sodipodi:namedview
     pagecolor="#ffffff"
     bordercolor="#666666"
     borderopacity="1"
     objecttolerance="10"
     gridtolerance="10"
     guidetolerance="10"
     inkscape:pageopacity="0"
     inkscape:pageshadow="2"
     inkscape:window-width="1600"
     inkscape:window-height="837"
     id="namedview12"
     showgrid="false"
     inkscape:zoom="1.0396245"
     inkscape:cx="322.53967"
     inkscape:cy="321.26984"
     inkscape:window-x="-8"
     inkscape:window-y="-8"
     inkscape:window-maximized="1"
     inkscape:current-layer="svg10" />
  <path
     style="fill:currentColor"
     d="m 146.11876,619.11814 c -18.72809,-5.97951 -40.41869,-28.62166 -46.08235,-48.10395 -7.796276,-26.81826 -1.719275,-52.4384 18.96797,-79.96739 13.26475,-17.65171 59.39252,-68.72282 61.36239,-67.93839 0.92545,0.36854 9.37998,7.79173 18.78786,16.49598 l 17.10523,15.82588 -22.71856,24.80904 c -44.2203,48.28924 -52.07741,61.88863 -45.2278,78.28205 1.91665,4.58718 5.79215,9.57519 8.61222,11.08445 7.73993,4.14227 23.6763,3.26433 31.16752,-1.71708 7.64648,-5.08465 93.65889,-84.36432 93.65889,-86.32762 0,-0.71428 -18.67316,-20.86473 -41.49591,-44.77877 C 204.15235,398.95217 99.466316,287.86319 51.491391,236.47203 30.741413,214.24448 22.310754,197.62739 20.742095,175.86424 17.847717,135.70843 45.149789,101.99161 85.454326,95.94758 c 12.029925,-1.804 32.898904,2.365786 46.808164,9.35263 12.72973,6.39436 42.5136,30.41223 67.60736,54.51893 l 20.97487,20.14983 -16.21321,17.73804 -16.2132,17.73805 -19.70358,-17.73805 c -47.30195,-42.58333 -60.90083,-52.02376 -74.939947,-52.02376 -10.715979,0 -16.90547,3.72373 -21.744934,13.08223 -8.603601,16.63752 -2.425072,25.82061 65.503991,97.35787 l 24.08158,25.36074 63.24296,-59.90944 C 374.86731,79.47263 424.22169,34.642777 438.77547,27.268232 c 12.40955,-6.288029 17.21999,-7.280192 34.72269,-7.161633 16.83835,0.11406 22.54555,1.289423 33.32914,6.863916 16.74885,8.658194 31.98997,26.074562 37.355,42.686399 10.94362,33.884946 0.66687,61.179076 -40.4719,107.489916 -11.02943,12.41608 -24.17188,27.23404 -29.20543,32.9288 l -9.15193,10.35411 -12.43537,-10.45162 c -6.83947,-5.7484 -15.1935,-13.41017 -18.56452,-17.02616 l -6.12915,-6.57451 13.77758,-14.63282 c 20.58169,-21.85924 41.47423,-46.4033 48.9684,-57.52689 14.45346,-21.453177 5.48879,-44.744663 -17.20774,-44.708224 -5.73255,0.0091 -13.40493,2.009204 -17.04976,4.444445 -10.28226,6.869955 -93.85752,85.221819 -93.09658,87.278099 0.37176,1.00459 27.6062,30.20279 60.52102,64.88489 152.94796,161.16023 184.67189,196.00584 191.90394,210.78763 14.36927,29.36973 10.36094,60.93595 -10.71426,84.37668 -16.00264,17.79878 -30.50392,24.26705 -54.48939,24.30489 -16.43932,0.0259 -21.50235,-1.11858 -35.55556,-8.03759 -16.96411,-8.35215 -42.97818,-28.72393 -73.75995,-57.7619 L 423.72196,462.99527 439.456,445.29165 c 8.65374,-9.73701 16.22387,-17.70364 16.82255,-17.70364 0.59868,0 12.14657,10.03957 25.662,22.31014 37.25313,33.82192 51.9233,44.13628 64.84718,45.59299 13.7889,1.55421 21.33809,-2.32977 25.94116,-13.34646 7.31403,-17.50496 3.34329,-23.14075 -74.10235,-105.17582 l -15.50656,-16.42545 -86.08074,81.29648 c -150.77066,142.39104 -176.63017,165.7997 -190.94097,172.84437 -16.92154,8.32983 -41.97624,10.18194 -59.97951,4.43388 z m 251.93287,-246.05016 51.01265,-48.17084 -13.01729,-14.05138 c -14.73837,-15.9092 -49.88341,-52.86641 -86.07792,-90.51634 l -24.48147,-25.4659 -64.79563,61.00904 -64.79563,61.00901 9.2771,10.59469 c 5.10241,5.82708 32.6546,35.19101 61.2271,65.25318 l 51.94997,54.65849 14.34425,-13.07456 c 7.88932,-7.19101 37.29991,-34.75144 65.35687,-61.24539 z"
     id="path20"
     inkscape:connector-curvature="0" />
</svg>
